<svg xmlns="http://www.w3.org/2000/svg" id="canvas" viewBox="649.973 242.231 235.467 213.146"><path d="M 701.66,290.69 C 700.88 291.57, 700.54 292.45, 699.78 295.42 C 699.02 298.39, 699.13 300.35, 697.87 305.55 C 696.61 310.76, 695.77 314.20, 693.47 321.43 C 691.18 328.66, 689.60 333.03, 686.41 341.72 C 683.21 350.40, 681.14 355.46, 677.50 364.85 C 673.86 374.23, 671.67 379.39, 668.20 388.64 C 664.73 397.90, 662.83 402.85, 660.17 411.13 C 657.51 419.40, 656.34 423.51, 654.91 430.00 C 653.48 436.48, 652.80 439.32, 653.01 443.54 C 653.23 447.77, 653.83 449.58, 655.97 451.13 C 658.11 452.68, 660.11 452.84, 663.70 451.30 C 667.29 449.76, 669.11 447.82, 673.91 443.42 C 678.71 439.02, 681.41 435.96, 687.71 429.31 C 694.01 422.66, 697.68 418.50, 705.42 410.18 C 713.16 401.85, 717.50 397.03, 726.41 387.68 C 735.31 378.33, 740.26 373.17, 749.94 363.43 C 759.62 353.68, 764.85 348.51, 774.80 338.97 C 784.74 329.43, 789.98 324.64, 799.67 315.74 C 809.36 306.84, 814.29 302.38, 823.24 294.49 C 832.19 286.60, 836.70 282.78, 844.42 276.29 C 852.14 269.81, 855.81 266.84, 861.85 262.06 C 867.89 257.27, 870.71 255.30, 874.61 252.35 C 878.51 249.41, 880.16 248.68, 881.33 247.33 C 882.51 245.98, 881.83 245.00, 880.48 245.60 C 879.14 246.19, 875.27 248.82, 874.62 250.31 C 873.97 251.79, 875.71 253.64, 877.24 253.02 C 878.77 252.40, 881.70 248.74, 882.27 247.22 C 882.84 245.70, 881.94 244.81, 880.09 245.43 C 878.25 246.05, 876.92 247.28, 873.04 250.32 C 869.16 253.36, 866.61 255.68, 860.70 260.65 C 854.78 265.62, 851.13 268.60, 843.47 275.17 C 835.81 281.75, 831.31 285.59, 822.39 293.52 C 813.47 301.46, 808.54 305.94, 798.86 314.86 C 789.18 323.78, 783.94 328.58, 773.98 338.12 C 764.03 347.66, 758.79 352.84, 749.08 362.57 C 739.37 372.30, 734.40 377.45, 725.44 386.76 C 716.48 396.06, 712.10 400.87, 704.27 409.09 C 696.43 417.32, 692.68 421.43, 686.25 427.89 C 679.82 434.34, 676.90 437.30, 672.11 441.39 C 667.32 445.47, 665.22 446.77, 662.29 448.31 C 659.36 449.85, 658.76 450.07, 657.46 449.10 C 656.16 448.12, 655.87 447.17, 655.79 443.44 C 655.70 439.71, 655.81 436.79, 657.04 430.44 C 658.26 424.08, 659.35 419.91, 661.90 411.67 C 664.45 403.43, 666.34 398.47, 669.78 389.23 C 673.22 379.99, 675.42 374.84, 679.11 365.48 C 682.80 356.11, 684.90 351.06, 688.24 342.41 C 691.59 333.76, 693.26 329.41, 695.82 322.22 C 698.39 315.02, 699.45 311.62, 701.07 306.44 C 702.68 301.25, 703.35 299.37, 703.88 296.29 C 704.40 293.21, 704.13 292.15, 703.69 291.03 C 703.25 289.91, 702.45 289.81, 701.66 290.69" style="stroke: black; fill: black;"/><path d="M 772.97,338.55 C 771.80 338.98, 770.44 339.77, 769.02 341.98 C 767.60 344.18, 766.82 346.03, 765.88 349.58 C 764.94 353.14, 764.65 355.48, 764.31 359.75 C 763.96 364.03, 764.01 366.43, 764.15 370.96 C 764.29 375.50, 764.65 377.88, 765.02 382.43 C 765.40 386.97, 765.59 389.24, 766.03 393.68 C 766.47 398.12, 766.70 400.35, 767.22 404.63 C 767.75 408.90, 768.05 411.11, 768.66 415.04 C 769.26 418.98, 769.53 420.88, 770.25 424.30 C 770.98 427.73, 771.17 429.40, 772.28 432.17 C 773.38 434.93, 774.63 437.10, 775.76 438.12 C 776.90 439.14, 777.77 438.75, 777.93 437.28 C 778.10 435.81, 777.28 433.56, 776.58 430.77 C 775.88 427.98, 775.25 426.62, 774.43 423.34 C 773.62 420.07, 773.22 418.23, 772.50 414.39 C 771.78 410.55, 771.43 408.36, 770.84 404.15 C 770.24 399.94, 769.99 397.73, 769.54 393.33 C 769.09 388.93, 768.90 386.64, 768.58 382.15 C 768.26 377.67, 767.93 375.29, 767.94 370.90 C 767.95 366.52, 768.05 364.22, 768.62 360.23 C 769.19 356.25, 769.80 354.18, 770.79 350.98 C 771.77 347.79, 772.74 346.50, 773.56 344.27 C 774.38 342.03, 774.99 340.96, 774.87 339.82 C 774.75 338.68, 774.14 338.12, 772.97 338.55" style="stroke: black; fill: black;"/></svg>