<svg xmlns="http://www.w3.org/2000/svg" id="canvas" viewBox="679.242 450.255 1331.777 321.341">
  <style><![CDATA[
    .stroke {
      fill: none;
      stroke: #000;
      stroke-width: 1;
      stroke-linecap: round;
      stroke-linejoin: round;
      vector-effect: non-scaling-stroke;
      stroke-dasharray: 1;
      stroke-dashoffset: 1;
    }

    .stroke-1 {
      animation: draw-1 1.8s ease-out forwards;
    }

    .stroke-2 {
      animation: draw-2 5.2s ease-out 0.15s forwards;
    }

    @keyframes draw-1 {
      to { stroke-dashoffset: 0; }
    }

    @keyframes draw-2 {
      to { stroke-dashoffset: 0; }
    }

    @media (prefers-reduced-motion: reduce) {
      .stroke {
        animation: none;
        stroke-dashoffset: 0;
      }
    }
  ]]></style>

  <path id="kevina-line-1" class="stroke stroke-1" pathLength="1" d="M 798.37,473.15 C 798.62,473.41 799.76,473.8 799.87,474.69 C 799.97,475.59 799.27,477.24 798.98,478.5 C 798.69,479.77 798.44,481.27 798.1,482.31 C 797.76,483.36 797.63,483.14 796.94,484.79 C 796.25,486.44 794.95,489.74 793.95,492.22 C 792.96,494.69 791.79,497.59 790.96,499.63 C 790.14,501.67 790.14,501.78 788.99,504.45 C 787.84,507.11 785.7,511.88 784.06,515.6 C 782.41,519.32 780.46,523.74 779.12,526.76 C 777.77,529.78 777.61,530.2 775.97,533.74 C 774.33,537.27 771.51,543.24 769.27,548 C 767.04,552.76 764.38,558.49 762.58,562.27 C 760.77,566.05 760.42,566.6 758.41,570.71 C 756.41,574.82 753.17,581.54 750.55,586.95 C 747.93,592.36 744.79,598.96 742.68,603.19 C 740.58,607.43 740.07,608.01 737.94,612.35 C 735.82,616.69 732.61,623.6 729.95,629.23 C 727.29,634.85 724.04,641.74 721.96,646.1 C 719.88,650.45 719.38,651.16 717.49,655.37 C 715.59,659.57 712.9,665.99 710.6,671.3 C 708.3,676.61 705.43,683.21 703.71,687.24 C 701.99,691.27 701.65,691.86 700.29,695.47 C 698.92,699.09 697.1,704.43 695.51,708.91 C 693.92,713.39 691.88,719.06 690.74,722.35 C 689.6,725.63 689.33,725.92 688.66,728.61 C 688,731.3 687.38,735.19 686.74,738.48 C 686.1,741.76 685.19,745.93 684.82,748.34 C 684.44,750.75 684.33,751.3 684.51,752.94 C 684.69,754.59 685.43,756.47 685.88,758.24 C 686.34,760 686.67,762.46 687.25,763.53 C 687.84,764.6 688.34,764.44 689.39,764.68 C 690.45,764.92 692.2,764.86 693.6,764.95 C 695,765.03 696.76,765.39 697.81,765.21 C 698.85,765.03 698.33,764.8 699.85,763.86 C 701.36,762.91 704.55,760.98 706.9,759.55 C 709.25,758.12 712,756.51 713.96,755.25 C 715.92,753.99 716.17,753.94 718.66,751.97 C 721.15,750 725.49,746.28 728.9,743.43 C 732.32,740.58 736.4,737.29 739.15,734.89 C 741.9,732.5 742.22,732.04 745.38,729.04 C 748.55,726.03 753.88,720.92 758.13,716.87 C 762.38,712.81 767.52,708 770.87,704.69 C 774.22,701.39 774.59,700.72 778.21,697.04 C 781.83,693.36 787.81,687.4 792.62,682.59 C 797.42,677.77 803.28,671.93 807.03,668.13 C 810.77,664.34 811.22,663.75 815.08,659.83 C 818.93,655.9 825.13,649.67 830.16,644.6 C 835.19,639.52 841.39,633.26 845.25,629.37 C 849.12,625.48 849.56,625.06 853.37,621.24 C 857.17,617.42 863.17,611.38 868.07,606.45 C 872.97,601.53 879.08,595.38 882.77,591.67 C 886.46,587.97 886.74,587.72 890.23,584.22 C 893.72,580.73 899.2,575.19 903.68,570.67 C 908.17,566.16 913.82,560.47 917.13,557.13 C 920.45,553.79 920.55,553.7 923.58,550.63 C 926.61,547.57 931.42,542.7 935.34,538.73 C 939.25,534.75 944.2,529.73 947.08,526.81 C 949.96,523.89 950.08,523.83 952.64,521.21 C 955.2,518.59 959.17,514.47 962.43,511.11 C 965.7,507.74 969.84,503.47 972.23,501 C 974.62,498.54 974.78,498.45 976.79,496.32 C 978.8,494.19 981.8,490.91 984.31,488.21 C 986.82,485.51 990.03,482.07 991.83,480.11 C 993.62,478.14 993.72,478.02 995.09,476.43 C 996.46,474.84 998.38,472.52 1000.02,470.56 C 1001.67,468.6 1003.81,466.08 1004.96,464.69 C 1006.11,463.3 1006.25,463.2 1006.92,462.23 C 1007.59,461.25 1008.3,459.98 1008.99,458.86 C 1009.68,457.73 1010.83,456.34 1011.06,455.49 C 1011.29,454.63 1010.49,454.01 1010.37,453.72"/>
  <path id="kevina-line-2" class="stroke stroke-2" pathLength="1" d="M 886.44,581.53 C 886.58,581.74 887.15,582.09 887.26,582.78 C 887.38,583.47 887.17,584.72 887.12,585.69 C 887.07,586.67 887.11,587.76 886.97,588.62 C 886.84,589.48 886.53,589.63 886.32,590.88 C 886.11,592.13 885.92,594.38 885.72,596.12 C 885.51,597.87 885.36,599.91 885.12,601.37 C 884.87,602.83 884.42,603.14 884.25,604.89 C 884.09,606.65 884.18,609.57 884.14,611.91 C 884.1,614.26 884.02,617.05 884.02,618.94 C 884.02,620.83 883.95,621.22 884.14,623.27 C 884.33,625.32 884.81,628.59 885.15,631.25 C 885.49,633.9 885.84,637.15 886.16,639.22 C 886.48,641.29 886.57,641.57 887.07,643.66 C 887.57,645.76 888.47,649.09 889.17,651.79 C 889.88,654.5 890.7,657.84 891.29,659.91 C 891.87,661.99 891.93,662.27 892.66,664.26 C 893.4,666.25 894.67,669.32 895.67,671.86 C 896.67,674.39 897.9,677.53 898.67,679.45 C 899.44,681.37 899.39,681.64 900.31,683.36 C 901.22,685.07 902.89,687.63 904.18,689.76 C 905.48,691.9 907.07,694.6 908.07,696.17 C 909.06,697.75 908.97,697.95 910.14,699.24 C 911.31,700.53 913.43,702.36 915.07,703.91 C 916.71,705.47 918.72,707.48 920,708.59 C 921.28,709.69 921.29,709.77 922.76,710.53 C 924.24,711.28 926.82,712.26 928.85,713.12 C 930.87,713.99 933.35,715.15 934.92,715.71 C 936.5,716.28 936.51,716.3 938.27,716.49 C 940.02,716.69 943.06,716.76 945.45,716.89 C 947.85,717.02 950.8,717.27 952.65,717.29 C 954.51,717.31 954.56,717.37 956.59,717 C 958.62,716.63 962.08,715.73 964.82,715.1 C 967.56,714.46 970.91,713.77 973.05,713.19 C 975.18,712.62 975.38,712.61 977.64,711.64 C 979.9,710.67 983.61,708.8 986.6,707.38 C 989.59,705.95 993.24,704.31 995.56,703.11 C 997.88,701.9 998.17,701.71 1000.52,700.15 C 1002.86,698.6 1006.59,695.88 1009.62,693.75 C 1012.66,691.61 1016.41,689.09 1018.74,687.34 C 1021.07,685.59 1021.38,685.24 1023.62,683.25 C 1025.86,681.25 1029.31,677.98 1032.16,675.35 C 1035.01,672.71 1038.54,669.55 1040.7,667.44 C 1042.87,665.34 1043.2,664.9 1045.13,662.7 C 1047.07,660.5 1049.94,657.07 1052.34,654.25 C 1054.74,651.43 1057.76,647.98 1059.55,645.79 C 1061.34,643.6 1061.61,643.2 1063.06,641.09 C 1064.5,638.97 1066.48,635.75 1068.2,633.08 C 1069.91,630.4 1072.12,627.07 1073.34,625.06 C 1074.55,623.05 1074.7,622.82 1075.48,621 C 1076.27,619.19 1077.19,616.45 1078.05,614.17 C 1078.9,611.9 1080.06,609.06 1080.62,607.35 C 1081.17,605.63 1081.29,605.28 1081.36,603.88 C 1081.42,602.47 1081.13,600.57 1081.02,598.91 C 1080.91,597.26 1081,595.18 1080.69,593.95 C 1080.38,592.73 1079.86,592.35 1079.14,591.59 C 1078.43,590.82 1077.31,590.11 1076.38,589.38 C 1075.46,588.64 1074.42,587.52 1073.62,587.16 C 1072.83,586.8 1072.69,587.09 1071.62,587.21 C 1070.55,587.32 1068.69,587.64 1067.22,587.86 C 1065.76,588.08 1064.01,588.29 1062.84,588.51 C 1061.66,588.74 1061.6,588.54 1060.2,589.23 C 1058.79,589.92 1056.35,591.51 1054.43,592.65 C 1052.51,593.79 1050.24,595.08 1048.66,596.08 C 1047.09,597.07 1046.71,597.16 1044.99,598.64 C 1043.28,600.12 1040.59,602.87 1038.38,604.98 C 1036.18,607.09 1033.54,609.54 1031.77,611.32 C 1030,613.1 1029.52,613.49 1027.79,615.66 C 1026.06,617.83 1023.51,621.45 1021.37,624.34 C 1019.23,627.23 1016.61,630.66 1014.95,633.02 C 1013.29,635.38 1012.86,635.93 1011.41,638.49 C 1009.96,641.05 1007.98,645.07 1006.27,648.36 C 1004.55,651.64 1002.4,655.63 1001.12,658.22 C 999.84,660.81 999.5,661.34 998.59,663.91 C 997.68,666.48 996.63,670.41 995.64,673.65 C 994.66,676.9 993.37,680.91 992.7,683.4 C 992.03,685.89 991.81,686.31 991.62,688.6 C 991.43,690.88 991.56,694.26 991.53,697.09 C 991.51,699.92 991.33,703.46 991.45,705.59 C 991.57,707.71 991.63,708.07 992.26,709.83 C 992.89,711.58 994.24,714.03 995.22,716.13 C 996.21,718.23 997.27,720.94 998.18,722.42 C 999.1,723.91 999.35,724.02 1000.71,725.05 C 1002.07,726.08 1004.47,727.41 1006.35,728.6 C 1008.22,729.78 1010.45,731.37 1011.98,732.13 C 1013.51,732.9 1013.63,732.92 1015.53,733.2 C 1017.43,733.49 1020.78,733.63 1023.4,733.85 C 1026.02,734.06 1029.18,734.45 1031.28,734.49 C 1033.37,734.53 1033.58,734.52 1035.99,734.08 C 1038.39,733.63 1042.48,732.57 1045.72,731.81 C 1048.96,731.05 1052.89,730.27 1055.45,729.54 C 1058.02,728.81 1058.33,728.62 1061.1,727.44 C 1063.87,726.27 1068.43,724.15 1072.09,722.5 C 1075.75,720.86 1080.23,718.99 1083.07,717.57 C 1085.92,716.15 1086.24,715.75 1089.17,714.01 C 1092.1,712.27 1096.83,709.41 1100.66,707.12 C 1104.49,704.82 1109.19,702.09 1112.15,700.23 C 1115.12,698.36 1115.55,697.97 1118.45,695.94 C 1121.35,693.91 1125.85,690.67 1129.56,688.03 C 1133.26,685.4 1137.86,682.22 1140.66,680.13 C 1143.47,678.04 1143.8,677.58 1146.38,675.49 C 1148.97,673.39 1152.92,670.21 1156.19,667.58 C 1159.46,664.94 1163.51,661.75 1165.99,659.67 C 1168.48,657.58 1169,656.93 1171.1,655.07 C 1173.19,653.2 1176.08,650.69 1178.57,648.5 C 1181.07,646.32 1184.17,643.55 1186.07,641.94 C 1187.96,640.34 1188.7,640.05 1189.96,638.86 C 1191.22,637.66 1192.4,636.13 1193.62,634.77 C 1194.84,633.41 1196.82,631.84 1197.27,630.7 C 1197.72,629.55 1196.39,628.31 1196.33,627.88 C 1196.26,627.45 1196.68,628.03 1196.86,628.11 C 1197.03,628.18 1197.16,627.82 1197.38,628.33 C 1197.61,628.83 1198.41,629.86 1198.22,631.12 C 1198.04,632.38 1196.93,634.29 1196.28,635.88 C 1195.62,637.47 1195.17,639.23 1194.33,640.64 C 1193.48,642.05 1192.43,642.49 1191.22,644.37 C 1190.02,646.24 1188.47,649.39 1187.09,651.91 C 1185.71,654.43 1184.17,657.32 1182.95,659.46 C 1181.74,661.6 1181.02,662.41 1179.8,664.77 C 1178.57,667.14 1177,670.68 1175.6,673.63 C 1174.2,676.58 1172.52,680.14 1171.4,682.48 C 1170.29,684.82 1169.81,685.38 1168.93,687.66 C 1168.05,689.95 1167.05,693.35 1166.11,696.18 C 1165.17,699.02 1163.96,702.54 1163.29,704.7 C 1162.62,706.86 1162.38,707.24 1162.08,709.16 C 1161.78,711.08 1161.68,713.87 1161.49,716.22 C 1161.3,718.57 1160.96,721.51 1160.91,723.27 C 1160.87,725.04 1160.85,725.43 1161.24,726.8 C 1161.62,728.16 1162.55,729.91 1163.2,731.47 C 1163.86,733.02 1164.49,735.09 1165.18,736.13 C 1165.87,737.17 1166.3,737.12 1167.33,737.69 C 1168.35,738.27 1170.01,738.93 1171.35,739.56 C 1172.69,740.18 1174.29,741.11 1175.38,741.42 C 1176.46,741.73 1176.55,741.54 1177.88,741.43 C 1179.2,741.33 1181.51,740.99 1183.33,740.77 C 1185.15,740.55 1187.34,740.38 1188.78,740.11 C 1190.23,739.84 1190.34,739.81 1191.98,739.16 C 1193.62,738.52 1196.41,737.22 1198.62,736.24 C 1200.84,735.26 1203.5,734.15 1205.26,733.31 C 1207.03,732.47 1207.32,732.38 1209.2,731.18 C 1211.08,729.98 1214.09,727.81 1216.54,726.12 C 1218.99,724.44 1221.97,722.47 1223.88,721.07 C 1225.8,719.67 1226.11,719.42 1228.01,717.74 C 1229.92,716.06 1232.89,713.23 1235.34,710.98 C 1237.78,708.72 1240.78,706.04 1242.66,704.21 C 1244.53,702.39 1244.85,701.99 1246.6,700 C 1248.35,698.02 1250.96,694.87 1253.14,692.31 C 1255.32,689.74 1258.05,686.65 1259.68,684.61 C 1261.31,682.57 1261.54,682.11 1262.93,680.09 C 1264.32,678.07 1266.34,675.01 1268.04,672.47 C 1269.74,669.94 1271.92,666.86 1273.14,664.86 C 1274.37,662.87 1274.49,662.27 1275.41,660.5 C 1276.34,658.74 1277.59,656.34 1278.68,654.25 C 1279.77,652.16 1281.19,649.55 1281.94,647.99 C 1282.7,646.43 1282.83,646.05 1283.23,644.91 C 1283.63,643.78 1283.98,642.43 1284.36,641.18 C 1284.74,639.94 1285.55,638.29 1285.49,637.44 C 1285.43,636.6 1284.19,636.41 1284,636.1 C 1283.81,635.78 1284.23,635.75 1284.34,635.58 C 1284.46,635.41 1284.65,634.88 1284.69,635.07 C 1284.73,635.25 1284.34,636.09 1284.57,636.68 C 1284.8,637.27 1285.58,637.96 1286.09,638.6 C 1286.6,639.24 1287.07,639.9 1287.62,640.52 C 1288.16,641.14 1288.64,641.56 1289.36,642.34 C 1290.08,643.11 1291.1,644.24 1291.97,645.18 C 1292.83,646.13 1293.96,647.22 1294.57,648.03 C 1295.18,648.84 1294.85,649.26 1295.61,650.06 C 1296.37,650.86 1297.96,651.91 1299.13,652.84 C 1300.3,653.77 1301.75,654.88 1302.64,655.62 C 1303.54,656.36 1303.36,656.67 1304.51,657.25 C 1305.66,657.83 1307.87,658.48 1309.55,659.09 C 1311.22,659.7 1313.24,660.5 1314.57,660.92 C 1315.91,661.35 1315.91,661.46 1317.53,661.64 C 1319.15,661.82 1322.04,661.9 1324.3,662.03 C 1326.55,662.16 1329.23,662.39 1331.05,662.42 C 1332.87,662.46 1333.18,662.48 1335.22,662.25 C 1337.27,662.01 1340.62,661.44 1343.32,661.04 C 1346.02,660.63 1349.26,660.23 1351.41,659.83 C 1353.56,659.42 1353.97,659.24 1356.19,658.6 C 1358.42,657.96 1361.91,656.85 1364.76,655.98 C 1367.61,655.12 1371.13,654.14 1373.32,653.38 C 1375.51,652.62 1375.79,652.33 1377.92,651.44 C 1380.06,650.55 1383.39,649.16 1386.13,648.01 C 1388.87,646.87 1392.18,645.55 1394.34,644.59 C 1396.5,643.63 1397.18,643.22 1399.09,642.27 C 1401,641.32 1403.57,640 1405.8,638.87 C 1408.04,637.74 1410.79,636.38 1412.53,635.47 C 1414.26,634.57 1414.99,634.17 1416.19,633.43 C 1417.39,632.69 1418.54,631.83 1419.72,631.03 C 1420.9,630.23 1422.68,629.47 1423.25,628.62 C 1423.82,627.78 1423.08,626.29 1423.12,625.99 C 1423.15,625.69 1423.34,626.56 1423.45,626.85 C 1423.57,627.14 1423.67,627.04 1423.79,627.71 C 1423.91,628.38 1424.58,629.6 1424.18,630.87 C 1423.79,632.13 1422.35,633.84 1421.42,635.33 C 1420.5,636.82 1419.74,638.56 1418.66,639.8 C 1417.58,641.03 1416.46,641.2 1414.95,642.76 C 1413.45,644.32 1411.41,647.03 1409.64,649.16 C 1407.87,651.3 1405.87,653.77 1404.33,655.58 C 1402.79,657.39 1401.96,658.06 1400.38,660.03 C 1398.8,661.99 1396.7,664.93 1394.86,667.39 C 1393.02,669.85 1390.82,672.82 1389.34,674.76 C 1387.85,676.7 1387.16,677.14 1385.94,679.01 C 1384.72,680.88 1383.34,683.67 1382.04,686 C 1380.74,688.34 1379.1,691.21 1378.14,693 C 1377.18,694.78 1376.77,695.13 1376.31,696.7 C 1375.84,698.26 1375.67,700.47 1375.35,702.36 C 1375.03,704.24 1374.44,706.56 1374.39,708.01 C 1374.35,709.47 1374.58,710.02 1375.06,711.07 C 1375.54,712.11 1376.53,713.23 1377.27,714.31 C 1378.01,715.39 1378.79,716.94 1379.48,717.56 C 1380.17,718.18 1380.27,717.88 1381.42,718.06 C 1382.57,718.23 1384.74,718.42 1386.4,718.6 C 1388.06,718.78 1390.04,719.11 1391.39,719.14 C 1392.73,719.17 1392.69,719.15 1394.49,718.8 C 1396.29,718.45 1399.62,717.61 1402.18,717.02 C 1404.75,716.43 1407.77,715.8 1409.89,715.24 C 1412.01,714.68 1412.42,714.56 1414.93,713.64 C 1417.43,712.72 1421.59,711.01 1424.92,709.69 C 1428.25,708.38 1432.24,706.86 1434.9,705.75 C 1437.57,704.64 1438.03,704.42 1440.9,703.01 C 1443.77,701.6 1448.38,699.2 1452.12,697.29 C 1455.86,695.38 1460.41,693.16 1463.34,691.58 C 1466.27,689.99 1466.73,689.53 1469.67,687.79 C 1472.62,686.04 1477.24,683.32 1481.01,681.09 C 1484.79,678.85 1489.44,676.19 1492.35,674.39 C 1495.26,672.59 1495.73,672.04 1498.47,670.27 C 1501.21,668.51 1505.35,665.96 1508.79,663.81 C 1512.23,661.65 1516.52,658.98 1519.1,657.33 C 1521.68,655.67 1522.03,655.31 1524.28,653.88 C 1526.52,652.44 1529.81,650.45 1532.58,648.74 C 1535.35,647.02 1538.85,644.82 1540.88,643.59 C 1542.92,642.36 1543.25,642.25 1544.82,641.33 C 1546.39,640.41 1548.49,639.16 1550.33,638.08 C 1552.16,637 1554.64,635.59 1555.82,634.83 C 1557,634.07 1556.71,633.91 1557.42,633.52 C 1558.14,633.13 1559.2,632.83 1560.09,632.48 C 1560.98,632.13 1562.29,631.69 1562.76,631.44 C 1563.23,631.2 1562.75,630.75 1562.9,630.99 C 1563.05,631.23 1563.41,632.26 1563.66,632.89 C 1563.91,633.53 1564.18,634.02 1564.41,634.8 C 1564.65,635.58 1565.13,636.36 1565.05,637.56 C 1564.96,638.76 1564.26,640.53 1563.88,642.01 C 1563.49,643.5 1563.23,645.22 1562.72,646.48 C 1562.2,647.73 1561.61,648.09 1560.8,649.54 C 1559.98,650.99 1558.81,653.3 1557.82,655.18 C 1556.83,657.07 1555.73,659.33 1554.85,660.84 C 1553.97,662.36 1553.52,662.71 1552.55,664.28 C 1551.57,665.85 1550.19,668.26 1549.01,670.26 C 1547.82,672.26 1546.43,674.69 1545.46,676.25 C 1544.49,677.81 1544.07,678.12 1543.18,679.6 C 1542.28,681.07 1541.13,683.27 1540.12,685.11 C 1539.1,686.95 1537.92,689.23 1537.06,690.62 C 1536.2,692.01 1535.5,692.25 1534.95,693.45 C 1534.39,694.65 1534.13,696.38 1533.72,697.84 C 1533.31,699.3 1532.6,701.01 1532.49,702.23 C 1532.38,703.45 1532.83,704.34 1533.08,705.14 C 1533.32,705.95 1533.67,706.43 1533.97,707.08 C 1534.27,707.72 1534.64,708.76 1534.88,709 C 1535.11,709.24 1534.81,708.77 1535.37,708.52 C 1535.93,708.27 1537.27,707.84 1538.22,707.49 C 1539.16,707.14 1540.32,706.84 1541.05,706.45 C 1541.79,706.06 1541.44,705.89 1542.63,705.13 C 1543.82,704.37 1546.33,702.97 1548.18,701.89 C 1550.04,700.82 1552.13,699.6 1553.74,698.67 C 1555.34,697.74 1555.76,697.54 1557.8,696.32 C 1559.85,695.09 1563.26,693 1565.99,691.35 C 1568.71,689.69 1571.93,687.78 1574.16,686.38 C 1576.4,684.97 1576.93,684.49 1579.42,682.93 C 1581.91,681.38 1585.87,679.01 1589.09,677.04 C 1592.31,675.08 1596.19,672.74 1598.76,671.15 C 1601.32,669.56 1601.88,669.04 1604.47,667.5 C 1607.07,665.95 1611.04,663.74 1614.32,661.87 C 1617.61,660 1621.62,657.71 1624.17,656.25 C 1626.73,654.8 1627.27,654.35 1629.63,653.13 C 1631.99,651.91 1635.43,650.34 1638.34,648.94 C 1641.24,647.55 1644.82,645.74 1647.05,644.76 C 1649.27,643.78 1649.89,643.69 1651.69,643.06 C 1653.49,642.42 1655.81,641.65 1657.87,640.94 C 1659.93,640.24 1662.69,639.3 1664.05,638.84 C 1665.42,638.37 1665.19,638.2 1666.06,638.13 C 1666.93,638.06 1668.18,638.3 1669.25,638.39 C 1670.32,638.48 1671.73,638.53 1672.45,638.65 C 1673.17,638.77 1673.31,638.49 1673.55,639.09 C 1673.78,639.68 1673.74,641.19 1673.84,642.25 C 1673.95,643.3 1674.28,644.32 1674.15,645.41 C 1674.02,646.51 1673.62,647.37 1673.05,648.84 C 1672.49,650.3 1671.53,652.43 1670.77,654.23 C 1670.01,656.02 1669.3,658.14 1668.49,659.62 C 1667.68,661.1 1666.93,661.48 1665.92,663.08 C 1664.91,664.68 1663.61,667.17 1662.45,669.21 C 1661.29,671.25 1659.98,673.72 1658.96,675.34 C 1657.94,676.96 1657.26,677.34 1656.33,678.93 C 1655.39,680.52 1654.35,682.89 1653.37,684.88 C 1652.39,686.86 1651.25,689.28 1650.42,690.83 C 1649.6,692.38 1648.9,692.82 1648.45,694.17 C 1647.99,695.53 1647.94,697.36 1647.68,698.95 C 1647.43,700.54 1646.94,702.47 1646.92,703.73 C 1646.9,704.98 1647.13,705.62 1647.57,706.46 C 1648.01,707.3 1648.91,707.99 1649.57,708.76 C 1650.24,709.53 1651.02,710.74 1651.57,711.06 C 1652.13,711.38 1651.88,710.76 1652.9,710.66 C 1653.92,710.56 1656.08,710.53 1657.67,710.46 C 1659.27,710.39 1661.12,710.36 1662.45,710.25 C 1663.78,710.15 1663.8,710.28 1665.63,709.86 C 1667.47,709.44 1670.85,708.45 1673.45,707.75 C 1676.06,707.04 1679.11,706.28 1681.26,705.62 C 1683.41,704.97 1683.77,704.77 1686.35,703.81 C 1688.93,702.84 1693.28,701.17 1696.74,699.86 C 1700.2,698.54 1704.35,697.03 1707.13,695.91 C 1709.91,694.8 1710.4,694.5 1713.44,693.18 C 1716.48,691.86 1721.4,689.74 1725.38,688.02 C 1729.37,686.3 1734.18,684.27 1737.33,682.87 C 1740.47,681.46 1741.07,681.08 1744.26,679.62 C 1747.44,678.15 1752.38,675.91 1756.45,674.06 C 1760.51,672.21 1765.51,669.96 1768.64,668.5 C 1771.78,667.04 1772.33,666.66 1775.28,665.28 C 1778.24,663.9 1782.66,661.92 1786.35,660.24 C 1790.04,658.56 1794.62,656.46 1797.41,655.2 C 1800.2,653.94 1800.67,653.76 1803.07,652.7 C 1805.46,651.65 1808.86,650.14 1811.76,648.86 C 1814.66,647.57 1818.34,645.87 1820.46,645.01 C 1822.58,644.15 1822.93,644.39 1824.49,643.72 C 1826.06,643.05 1828.06,641.91 1829.84,641 C 1831.62,640.1 1834.05,638.98 1835.18,638.29 C 1836.3,637.6 1836.06,637.36 1836.61,636.86 C 1837.15,636.35 1837.84,635.81 1838.46,635.28 C 1839.09,634.76 1840.08,634.15 1840.33,633.71 C 1840.57,633.27 1840.14,632.73 1839.94,632.64 C 1839.75,632.55 1839.41,632.98 1839.14,633.15 C 1838.88,633.32 1838.61,633.23 1838.34,633.66 C 1838.07,634.09 1838.19,635.02 1837.54,635.72 C 1836.89,636.41 1835.48,637.12 1834.45,637.83 C 1833.42,638.53 1832.3,639.42 1831.36,639.93 C 1830.42,640.45 1830.09,640.28 1828.81,640.91 C 1827.53,641.54 1825.4,642.77 1823.69,643.7 C 1821.99,644.63 1819.98,645.78 1818.58,646.49 C 1817.18,647.2 1816.9,647.07 1815.28,647.96 C 1813.66,648.84 1811.01,650.51 1808.87,651.79 C 1806.73,653.06 1804.17,654.6 1802.47,655.62 C 1800.76,656.63 1800.42,656.69 1798.62,657.89 C 1796.81,659.1 1793.97,661.19 1791.64,662.84 C 1789.32,664.49 1786.53,666.45 1784.67,667.79 C 1782.82,669.13 1782.3,669.4 1780.53,670.86 C 1778.75,672.31 1776.19,674.64 1774.03,676.54 C 1771.86,678.43 1769.19,680.72 1767.52,682.21 C 1765.85,683.71 1765.41,684 1764.01,685.5 C 1762.62,687.01 1760.75,689.33 1759.12,691.24 C 1757.5,693.15 1755.44,695.51 1754.24,696.98 C 1753.03,698.44 1752.67,698.67 1751.89,700.05 C 1751.11,701.42 1750.35,703.5 1749.57,705.22 C 1748.8,706.94 1747.72,709 1747.26,710.38 C 1746.79,711.77 1746.76,712.43 1746.81,713.55 C 1746.86,714.66 1747.3,715.92 1747.55,717.1 C 1747.8,718.28 1747.88,719.88 1748.31,720.65 C 1748.73,721.42 1749.27,721.33 1750.11,721.71 C 1750.95,722.1 1752.26,722.55 1753.34,722.97 C 1754.41,723.4 1755.72,724.05 1756.56,724.25 C 1757.4,724.44 1757.17,724.31 1758.36,724.17 C 1759.54,724.03 1761.9,723.67 1763.68,723.42 C 1765.46,723.17 1767.53,722.93 1769.01,722.68 C 1770.48,722.43 1770.73,722.5 1772.55,721.92 C 1774.37,721.35 1777.48,720.15 1779.94,719.26 C 1782.41,718.37 1785.34,717.38 1787.35,716.6 C 1789.35,715.81 1789.74,715.63 1791.97,714.55 C 1794.19,713.46 1797.77,711.58 1800.68,710.1 C 1803.58,708.61 1807.09,706.88 1809.38,705.65 C 1811.68,704.42 1812.1,704.14 1814.44,702.7 C 1816.79,701.26 1820.47,698.9 1823.48,697 C 1826.49,695.1 1830.17,692.84 1832.51,691.31 C 1834.84,689.78 1835.27,689.46 1837.49,687.85 C 1839.72,686.23 1843.05,683.69 1845.83,681.61 C 1848.61,679.53 1852.02,677.05 1854.16,675.38 C 1856.3,673.72 1856.86,673.19 1858.69,671.6 C 1860.52,670.01 1862.99,667.77 1865.14,665.86 C 1867.29,663.94 1869.91,661.6 1871.59,660.12 C 1873.27,658.63 1874.14,658.18 1875.22,656.97 C 1876.3,655.77 1877.12,654.26 1878.07,652.9 C 1879.02,651.54 1880.65,650.03 1880.93,648.83 C 1881.2,647.63 1879.97,646.24 1879.71,645.68 C 1879.46,645.12 1879.51,645.55 1879.4,645.49 C 1879.3,645.42 1879.14,644.85 1879.1,645.29 C 1879.05,645.73 1879.57,647.01 1879.13,648.12 C 1878.7,649.22 1877.38,650.66 1876.51,651.93 C 1875.64,653.2 1874.9,654.63 1873.89,655.75 C 1872.89,656.86 1871.77,657.13 1870.51,658.6 C 1869.24,660.07 1867.7,662.58 1866.3,664.57 C 1864.91,666.55 1863.33,668.81 1862.11,670.53 C 1860.89,672.24 1860.06,672.98 1858.96,674.85 C 1857.86,676.72 1856.67,679.45 1855.53,681.75 C 1854.38,684.06 1853.02,686.81 1852.09,688.66 C 1851.16,690.51 1850.44,691.1 1849.95,692.84 C 1849.45,694.58 1849.39,697 1849.12,699.08 C 1848.85,701.16 1848.37,703.73 1848.3,705.32 C 1848.23,706.91 1848.18,707.33 1848.69,708.6 C 1849.21,709.87 1850.5,711.5 1851.4,712.95 C 1852.3,714.41 1853.26,716.35 1854.1,717.31 C 1854.94,718.26 1855,718.09 1856.43,718.68 C 1857.85,719.28 1860.56,720.13 1862.62,720.86 C 1864.69,721.58 1867.1,722.57 1868.83,723.03 C 1870.55,723.49 1870.73,723.5 1872.99,723.63 C 1875.26,723.77 1879.27,723.76 1882.4,723.82 C 1885.53,723.88 1889.23,724.05 1891.8,724 C 1894.37,723.94 1894.85,723.87 1897.82,723.5 C 1900.79,723.13 1905.7,722.34 1909.64,721.75 C 1913.58,721.17 1918.24,720.59 1921.45,720.01 C 1924.66,719.42 1925.59,719.07 1928.92,718.25 C 1932.26,717.42 1937.28,716.14 1941.46,715.09 C 1945.64,714.03 1950.67,712.88 1954.01,711.93 C 1957.34,710.98 1958.4,710.4 1961.45,709.4 C 1964.51,708.41 1968.71,707.12 1972.35,705.98 C 1975.98,704.83 1980.38,703.45 1983.24,702.55 C 1986.1,701.65 1987.37,701.34 1989.49,700.58 C 1991.6,699.81 1993.79,698.82 1995.93,697.94 C 1998.08,697.06 2000.94,696.17 2002.38,695.32 C 2003.81,694.46 2004.2,693.25 2004.56,692.84"/>

</svg>
