<svg xmlns="http://www.w3.org/2000/svg" id="canvas" viewBox="679.242 450.255 1331.777 321.341"><path d="M 798.37,473.15 C 796.63 474.50, 796.73 476.43, 794.63 481.88 C 792.53 487.32, 791.59 490.96, 787.86 500.39 C 784.13 509.81, 781.68 515.98, 775.99 529.01 C 770.29 542.05, 766.75 549.94, 759.40 565.56 C 752.05 581.19, 747.40 590.22, 739.22 607.15 C 731.04 624.09, 726.24 633.39, 718.50 650.24 C 710.77 667.08, 706.62 676.33, 700.55 691.38 C 694.47 706.43, 691.74 713.66, 688.12 725.50 C 684.50 737.34, 682.99 742.56, 682.45 750.59 C 681.91 758.62, 682.26 762.27, 685.42 765.64 C 688.58 769.01, 691.92 769.33, 698.25 767.45 C 704.58 765.58, 708.10 762.98, 717.07 756.27 C 726.05 749.56, 731.51 744.73, 743.14 733.90 C 754.77 723.07, 761.50 715.96, 775.22 702.14 C 788.94 688.31, 796.77 680.02, 811.74 664.77 C 826.72 649.53, 834.96 641.19, 850.10 625.91 C 865.25 610.64, 873.21 602.72, 887.46 588.41 C 901.71 574.10, 908.67 567.15, 921.35 554.38 C 934.03 541.62, 939.98 535.60, 950.87 524.60 C 961.75 513.59, 966.94 508.44, 975.77 499.34 C 984.59 490.25, 988.57 486.07, 994.99 479.11 C 1001.41 472.15, 1004.16 469.16, 1007.87 464.53 C 1011.58 459.89, 1013.04 458.08, 1013.54 455.92 C 1014.04 453.75, 1012.19 452.54, 1010.37 453.71 C 1008.55 454.89, 1008.08 457.22, 1004.44 461.79 C 1000.80 466.37, 998.34 469.49, 992.18 476.59 C 986.02 483.70, 982.24 488.06, 973.63 497.31 C 965.01 506.57, 959.87 511.76, 949.10 522.87 C 938.34 533.98, 932.41 540.03, 919.80 552.85 C 907.18 565.67, 900.24 572.64, 886.02 586.97 C 871.79 601.30, 863.83 609.24, 848.68 624.50 C 833.52 639.76, 825.26 648.10, 810.23 663.28 C 795.19 678.46, 787.33 686.74, 773.49 700.40 C 759.65 714.06, 752.80 721.08, 741.04 731.59 C 729.27 742.11, 723.53 746.72, 714.67 752.96 C 705.81 759.21, 701.88 760.94, 696.73 762.83 C 691.59 764.73, 691.03 764.84, 688.95 762.44 C 686.87 760.03, 685.93 758.05, 686.35 750.83 C 686.76 743.62, 687.72 738.06, 691.03 726.36 C 694.34 714.66, 696.98 707.35, 702.90 692.32 C 708.83 677.29, 712.95 668.05, 720.65 651.22 C 728.35 634.40, 733.15 625.11, 741.40 608.21 C 749.65 591.31, 754.33 582.30, 761.88 566.75 C 769.43 551.20, 773.10 543.35, 779.15 530.44 C 785.19 517.53, 787.94 511.47, 792.12 502.19 C 796.30 492.91, 797.80 489.45, 800.05 484.04 C 802.29 478.63, 803.67 477.31, 803.33 475.13 C 803.00 472.96, 800.11 471.81, 798.37 473.15" style="stroke: black; fill: black;"/><path d="M 886.44,581.53 C 884.60 582.48, 883.74 583.98, 882.52 588.08 C 881.30 592.19, 880.78 595.47, 880.34 602.05 C 879.91 608.63, 879.70 613.03, 880.37 620.99 C 881.03 628.95, 881.86 633.49, 883.67 641.85 C 885.49 650.21, 886.74 654.66, 889.42 662.80 C 892.11 670.93, 893.64 675.21, 897.08 682.50 C 900.52 689.79, 902.20 693.38, 906.63 699.24 C 911.06 705.11, 913.49 707.89, 919.22 711.84 C 924.96 715.79, 928.29 717.33, 935.31 719.00 C 942.33 720.66, 946.21 720.93, 954.30 720.17 C 962.40 719.41, 966.84 718.42, 975.77 715.17 C 984.70 711.93, 989.64 709.54, 998.97 703.93 C 1008.29 698.32, 1013.32 694.60, 1022.39 687.11 C 1031.47 679.63, 1036.21 675.03, 1044.34 666.52 C 1052.47 658.00, 1056.61 653.06, 1063.04 644.55 C 1069.48 636.03, 1072.39 631.56, 1076.50 623.95 C 1080.61 616.33, 1082.12 612.76, 1083.59 606.47 C 1085.06 600.18, 1085.51 597.01, 1083.84 592.50 C 1082.18 587.99, 1079.75 585.49, 1075.26 583.93 C 1070.77 582.37, 1067.39 582.69, 1061.40 584.72 C 1055.42 586.75, 1052.01 588.75, 1045.34 594.08 C 1038.66 599.42, 1034.83 603.35, 1028.01 611.39 C 1021.19 619.42, 1017.28 624.47, 1011.25 634.26 C 1005.21 644.04, 1002.10 650.04, 997.82 660.29 C 993.53 670.54, 991.56 675.97, 989.82 685.50 C 988.09 695.03, 987.75 700.03, 989.15 707.95 C 990.54 715.88, 992.21 719.65, 996.80 725.12 C 1001.39 730.58, 1004.84 732.87, 1012.10 735.28 C 1019.37 737.68, 1023.82 737.99, 1033.13 737.14 C 1042.45 736.29, 1047.96 734.91, 1058.69 731.03 C 1069.42 727.15, 1075.31 724.02, 1086.81 717.73 C 1098.30 711.44, 1104.59 707.28, 1116.17 699.57 C 1127.75 691.86, 1134.01 687.39, 1144.71 679.18 C 1155.40 670.97, 1160.60 666.10, 1169.63 658.50 C 1178.66 650.91, 1183.68 646.55, 1189.85 641.21 C 1196.03 635.86, 1199.12 634.23, 1200.52 631.78 C 1201.91 629.32, 1198.93 627.25, 1196.84 628.93 C 1194.74 630.60, 1193.71 633.85, 1190.05 640.14 C 1186.39 646.43, 1183.03 651.58, 1178.52 660.37 C 1174.01 669.17, 1171.17 674.92, 1167.50 684.12 C 1163.83 693.32, 1162.07 698.21, 1160.16 706.38 C 1158.26 714.54, 1157.45 718.54, 1157.98 724.96 C 1158.52 731.38, 1159.44 734.49, 1162.85 738.48 C 1166.26 742.46, 1169.48 743.90, 1175.02 744.88 C 1180.56 745.86, 1183.89 745.29, 1190.56 743.36 C 1197.23 741.44, 1201.01 739.57, 1208.38 735.25 C 1215.74 730.93, 1219.81 728.04, 1227.38 721.76 C 1234.96 715.48, 1239.10 711.47, 1246.26 703.86 C 1253.42 696.26, 1257.15 691.75, 1263.18 683.74 C 1269.20 675.73, 1271.98 671.14, 1276.39 663.81 C 1280.80 656.48, 1282.63 652.29, 1285.21 647.10 C 1287.79 641.91, 1289.17 639.99, 1289.29 637.86 C 1289.41 635.72, 1287.07 635.39, 1285.82 636.45 C 1284.57 637.50, 1282.44 639.89, 1283.05 643.12 C 1283.67 646.35, 1285.50 649.12, 1288.89 652.62 C 1292.28 656.11, 1294.88 658.10, 1300.02 660.60 C 1305.16 663.10, 1308.04 664.10, 1314.58 665.12 C 1321.11 666.14, 1324.74 666.28, 1332.68 665.69 C 1340.62 665.11, 1345.52 664.37, 1354.27 662.19 C 1363.02 660.01, 1367.78 658.11, 1376.44 654.81 C 1385.09 651.52, 1389.57 649.38, 1397.54 645.73 C 1405.51 642.09, 1410.56 639.55, 1416.27 636.61 C 1421.99 633.68, 1424.85 632.73, 1426.12 631.05 C 1427.39 629.37, 1425.00 626.73, 1422.62 628.20 C 1420.24 629.67, 1418.79 632.95, 1414.24 638.40 C 1409.68 643.86, 1405.68 648.06, 1399.85 655.46 C 1394.03 662.87, 1390.16 667.82, 1385.10 675.44 C 1380.04 683.07, 1377.37 686.87, 1374.56 693.58 C 1371.74 700.29, 1370.46 703.69, 1371.02 709.00 C 1371.58 714.31, 1373.16 717.43, 1377.36 720.14 C 1381.57 722.86, 1384.98 723.13, 1392.05 722.58 C 1399.13 722.03, 1403.43 720.56, 1412.74 717.38 C 1422.05 714.20, 1427.68 711.85, 1438.60 706.68 C 1449.51 701.51, 1455.74 698.12, 1467.31 691.52 C 1478.87 684.93, 1485.30 680.63, 1496.43 673.68 C 1507.56 666.73, 1513.39 662.78, 1522.94 656.79 C 1532.49 650.80, 1537.02 647.86, 1544.19 643.75 C 1551.35 639.63, 1554.83 638.12, 1558.77 636.20 C 1562.70 634.28, 1563.34 634.15, 1563.88 634.14 C 1564.42 634.14, 1562.72 633.80, 1561.48 636.18 C 1560.23 638.56, 1559.90 641.19, 1557.65 646.06 C 1555.41 650.94, 1553.52 654.52, 1550.24 660.55 C 1546.97 666.59, 1544.72 670.23, 1541.27 676.23 C 1537.82 682.24, 1535.72 685.46, 1533.00 690.56 C 1530.29 695.66, 1527.93 697.76, 1527.69 701.76 C 1527.45 705.75, 1528.89 708.90, 1531.80 710.55 C 1534.71 712.19, 1537.18 711.93, 1542.24 710.00 C 1547.30 708.06, 1549.96 705.48, 1557.10 700.87 C 1564.24 696.27, 1568.84 692.95, 1577.96 686.99 C 1587.08 681.03, 1592.69 677.23, 1602.71 671.06 C 1612.72 664.89, 1618.47 661.29, 1628.04 656.13 C 1637.61 650.98, 1642.77 648.33, 1650.55 645.28 C 1658.33 642.23, 1662.60 641.62, 1666.95 640.88 C 1671.31 640.14, 1671.60 640.43, 1672.32 641.57 C 1673.05 642.72, 1672.27 643.06, 1670.58 646.61 C 1668.89 650.17, 1667.11 653.61, 1663.88 659.35 C 1660.65 665.10, 1657.98 669.03, 1654.43 675.34 C 1650.87 681.64, 1648.48 685.09, 1646.11 690.87 C 1643.75 696.66, 1642.00 699.70, 1642.60 704.26 C 1643.19 708.82, 1644.90 711.74, 1649.10 713.67 C 1653.29 715.60, 1656.52 715.11, 1663.55 713.92 C 1670.58 712.72, 1674.82 711.15, 1684.27 707.71 C 1693.72 704.26, 1699.35 701.62, 1710.80 696.67 C 1722.24 691.72, 1729.07 688.65, 1741.48 682.97 C 1753.88 677.29, 1760.87 673.80, 1772.83 668.26 C 1784.79 662.71, 1791.09 659.74, 1801.28 655.25 C 1811.46 650.76, 1816.46 648.77, 1823.76 645.80 C 1831.07 642.83, 1834.18 642.35, 1837.79 640.40 C 1841.40 638.45, 1841.92 637.76, 1841.82 636.06 C 1841.72 634.35, 1840.03 632.05, 1837.30 631.88 C 1834.57 631.72, 1832.62 632.97, 1828.17 635.23 C 1823.72 637.49, 1820.86 639.47, 1815.04 643.19 C 1809.22 646.91, 1805.86 649.09, 1799.06 653.85 C 1792.27 658.62, 1788.09 661.39, 1781.04 667.01 C 1773.98 672.63, 1769.84 676.01, 1763.79 681.97 C 1757.73 687.92, 1754.80 691.13, 1750.76 696.80 C 1746.71 702.47, 1744.75 705.23, 1743.57 710.33 C 1742.38 715.42, 1742.47 718.73, 1744.84 722.28 C 1747.21 725.83, 1750.22 727.26, 1755.43 728.06 C 1760.64 728.87, 1763.86 728.22, 1770.89 726.31 C 1777.91 724.41, 1782.14 722.51, 1790.55 718.54 C 1798.96 714.57, 1803.80 711.89, 1812.94 706.46 C 1822.08 701.04, 1827.28 697.64, 1836.25 691.39 C 1845.21 685.15, 1849.95 681.53, 1857.77 675.22 C 1865.58 668.92, 1869.93 664.94, 1875.32 659.87 C 1880.71 654.80, 1883.96 652.89, 1884.71 649.88 C 1885.47 646.87, 1882.10 644.00, 1879.08 644.82 C 1876.06 645.64, 1873.96 648.90, 1869.59 653.99 C 1865.23 659.08, 1861.64 663.22, 1857.26 670.29 C 1852.89 677.35, 1850.23 682.04, 1847.73 689.33 C 1845.22 696.61, 1843.83 700.57, 1844.73 706.69 C 1845.64 712.81, 1847.28 716.03, 1852.25 719.93 C 1857.22 723.82, 1861.14 724.90, 1869.57 726.19 C 1878.01 727.48, 1883.30 727.35, 1894.42 726.38 C 1905.54 725.42, 1912.35 724.15, 1925.18 721.36 C 1938.00 718.57, 1946.12 716.13, 1958.52 712.45 C 1970.93 708.78, 1977.75 706.24, 1987.20 703.00 C 1996.66 699.75, 2002.33 698.27, 2005.81 696.23 C 2009.28 694.20, 2008.51 692.15, 2004.56 692.83 C 2000.61 693.52, 1995.47 696.43, 1986.06 699.65 C 1976.64 702.88, 1969.82 705.34, 1957.49 708.95 C 1945.16 712.57, 1937.08 715.08, 1924.40 717.72 C 1911.72 720.36, 1904.90 721.44, 1894.10 722.15 C 1883.29 722.85, 1878.06 722.57, 1870.38 721.25 C 1862.69 719.92, 1859.64 718.58, 1855.68 715.52 C 1851.71 712.47, 1850.98 710.79, 1850.55 705.98 C 1850.11 701.17, 1850.96 697.83, 1853.51 691.47 C 1856.07 685.11, 1858.96 680.71, 1863.33 674.18 C 1867.69 667.66, 1871.33 663.70, 1875.35 658.84 C 1879.37 653.98, 1882.56 652.41, 1883.43 649.87 C 1884.31 647.33, 1882.13 644.94, 1879.73 646.15 C 1877.33 647.36, 1876.38 650.79, 1871.43 655.92 C 1866.47 661.06, 1862.47 665.43, 1854.96 671.84 C 1847.45 678.26, 1842.74 681.85, 1833.89 688.00 C 1825.04 694.16, 1819.80 697.47, 1810.71 702.61 C 1801.61 707.76, 1796.68 710.26, 1788.41 713.73 C 1780.13 717.20, 1775.73 718.62, 1769.34 719.98 C 1762.96 721.34, 1760.10 720.95, 1756.47 720.53 C 1752.85 720.12, 1752.48 719.62, 1751.24 717.89 C 1750.00 716.17, 1749.40 715.47, 1750.27 711.92 C 1751.14 708.36, 1752.13 705.35, 1755.58 700.11 C 1759.03 694.86, 1761.76 691.48, 1767.49 685.68 C 1773.23 679.88, 1777.31 676.50, 1784.26 671.10 C 1791.21 665.70, 1795.37 662.95, 1802.25 658.67 C 1809.14 654.40, 1812.66 652.61, 1818.68 649.72 C 1824.70 646.82, 1827.94 646.07, 1832.35 644.21 C 1836.76 642.35, 1839.00 642.38, 1840.73 640.42 C 1842.46 638.46, 1842.11 635.60, 1840.99 634.42 C 1839.86 633.23, 1838.93 633.07, 1835.11 634.51 C 1831.29 635.95, 1828.95 638.13, 1821.88 641.61 C 1814.81 645.09, 1809.85 647.19, 1799.76 651.91 C 1789.67 656.64, 1783.36 659.64, 1771.42 665.23 C 1759.48 670.82, 1752.50 674.29, 1740.07 679.86 C 1727.64 685.43, 1720.77 688.44, 1709.29 693.07 C 1697.81 697.71, 1692.02 700.11, 1682.68 703.05 C 1673.35 705.99, 1668.81 706.99, 1662.63 707.78 C 1656.45 708.57, 1654.32 707.79, 1651.80 707.00 C 1649.28 706.21, 1649.86 706.52, 1650.05 703.85 C 1650.24 701.18, 1650.65 698.63, 1652.77 693.64 C 1654.89 688.65, 1657.10 684.99, 1660.63 678.88 C 1664.17 672.77, 1667.05 669.04, 1670.46 663.08 C 1673.86 657.13, 1676.33 654.14, 1677.66 649.10 C 1679.00 644.06, 1679.41 640.66, 1677.11 637.88 C 1674.82 635.11, 1671.85 634.58, 1666.18 635.21 C 1660.52 635.83, 1656.80 637.53, 1648.79 641.01 C 1640.78 644.49, 1635.76 647.29, 1626.12 652.61 C 1616.49 657.93, 1610.74 661.53, 1600.61 667.61 C 1590.48 673.70, 1584.79 677.41, 1575.47 683.03 C 1566.15 688.64, 1561.25 691.72, 1554.01 695.70 C 1546.77 699.68, 1543.23 701.07, 1539.27 702.92 C 1535.30 704.78, 1534.81 704.84, 1534.19 704.98 C 1533.56 705.11, 1535.04 705.81, 1536.15 703.60 C 1537.26 701.39, 1537.53 698.71, 1539.75 693.92 C 1541.96 689.14, 1543.83 685.58, 1547.23 679.66 C 1550.63 673.73, 1553.10 670.26, 1556.74 664.29 C 1560.37 658.32, 1562.73 655.09, 1565.40 649.82 C 1568.07 644.56, 1570.02 642.01, 1570.10 637.97 C 1570.19 633.93, 1568.60 631.04, 1565.84 629.61 C 1563.08 628.18, 1561.10 628.75, 1556.30 630.82 C 1551.51 632.89, 1548.94 635.38, 1541.88 639.96 C 1534.81 644.54, 1530.42 647.55, 1520.97 653.72 C 1511.53 659.89, 1505.71 663.86, 1494.64 670.82 C 1483.56 677.77, 1477.14 682.05, 1465.60 688.49 C 1454.05 694.94, 1447.81 698.22, 1436.93 703.06 C 1426.06 707.90, 1420.30 709.99, 1411.24 712.71 C 1402.17 715.43, 1397.73 716.28, 1391.63 716.66 C 1385.54 717.04, 1383.64 716.25, 1380.75 714.62 C 1377.86 712.98, 1377.39 712.26, 1377.18 708.48 C 1376.96 704.70, 1377.21 701.72, 1379.68 695.71 C 1382.15 689.70, 1384.54 685.70, 1389.52 678.43 C 1394.51 671.15, 1398.63 666.45, 1404.62 659.34 C 1410.60 652.23, 1414.63 648.29, 1419.43 642.87 C 1424.23 637.46, 1427.64 635.73, 1428.61 632.26 C 1429.58 628.78, 1427.34 625.75, 1424.29 625.50 C 1421.23 625.25, 1419.11 627.88, 1413.32 631.01 C 1407.53 634.13, 1403.06 637.27, 1395.34 641.13 C 1387.62 644.99, 1383.17 647.09, 1374.72 650.30 C 1366.27 653.50, 1361.55 655.24, 1353.08 657.16 C 1344.61 659.08, 1339.80 659.64, 1332.37 659.88 C 1324.93 660.12, 1321.48 659.74, 1315.91 658.37 C 1310.33 657.00, 1308.04 655.71, 1304.51 653.06 C 1300.97 650.40, 1300.13 648.14, 1298.24 645.08 C 1296.34 642.02, 1296.86 639.95, 1295.04 637.75 C 1293.22 635.55, 1291.57 634.69, 1289.13 634.08 C 1286.70 633.47, 1284.81 632.63, 1282.87 634.71 C 1280.93 636.80, 1281.58 639.17, 1279.43 644.50 C 1277.29 649.84, 1276.10 654.07, 1272.15 661.40 C 1268.20 668.72, 1265.49 673.24, 1259.69 681.14 C 1253.88 689.04, 1250.16 693.49, 1243.10 700.87 C 1236.05 708.26, 1231.89 712.17, 1224.41 718.09 C 1216.93 724.01, 1212.81 726.66, 1205.70 730.49 C 1198.59 734.32, 1194.79 735.69, 1188.87 737.23 C 1182.95 738.76, 1180.34 738.78, 1176.10 738.18 C 1171.86 737.58, 1170.19 736.98, 1167.68 734.23 C 1165.17 731.49, 1164.10 729.80, 1163.56 724.45 C 1163.03 719.10, 1163.31 715.17, 1165.00 707.48 C 1166.70 699.78, 1168.32 694.86, 1172.06 685.99 C 1175.79 677.12, 1178.98 671.64, 1183.70 663.14 C 1188.42 654.63, 1191.90 649.75, 1195.66 643.45 C 1199.42 637.15, 1202.26 634.85, 1202.50 631.62 C 1202.74 628.39, 1200.03 626.05, 1196.87 627.28 C 1193.72 628.51, 1192.63 632.07, 1186.72 637.77 C 1180.80 643.48, 1176.10 648.03, 1167.30 655.80 C 1158.51 663.58, 1153.33 668.43, 1142.75 676.65 C 1132.17 684.87, 1125.92 689.29, 1114.40 696.89 C 1102.88 704.49, 1096.56 708.59, 1085.15 714.66 C 1073.75 720.74, 1067.85 723.70, 1057.37 727.28 C 1046.89 730.87, 1041.49 731.93, 1032.75 732.59 C 1024.01 733.24, 1020.10 732.69, 1013.67 730.55 C 1007.24 728.41, 1004.59 726.59, 1000.59 721.91 C 996.58 717.23, 994.98 714.27, 993.65 707.14 C 992.31 700.00, 992.36 695.29, 993.92 686.23 C 995.49 677.16, 997.31 671.77, 1001.47 661.81 C 1005.62 651.85, 1008.71 645.90, 1014.71 636.42 C 1020.72 626.94, 1024.68 622.00, 1031.49 614.42 C 1038.30 606.85, 1042.35 603.21, 1048.76 598.57 C 1055.16 593.93, 1058.67 592.73, 1063.52 591.22 C 1068.38 589.71, 1070.25 590.28, 1073.05 591.00 C 1075.85 591.72, 1076.48 591.95, 1077.51 594.82 C 1078.54 597.68, 1079.20 599.92, 1078.20 605.33 C 1077.20 610.74, 1076.17 614.51, 1072.51 621.88 C 1068.85 629.25, 1066.07 633.79, 1059.89 642.20 C 1053.72 650.61, 1049.62 655.55, 1041.64 663.95 C 1033.66 672.34, 1028.94 676.89, 1019.98 684.17 C 1011.03 691.46, 1006.01 695.05, 996.86 700.38 C 987.71 705.71, 982.83 707.89, 974.23 710.82 C 965.64 713.74, 961.39 714.46, 953.87 715.02 C 946.34 715.58, 942.91 715.17, 936.61 713.61 C 930.32 712.06, 927.52 710.77, 922.38 707.25 C 917.24 703.72, 915.04 701.38, 910.92 695.99 C 906.79 690.59, 905.07 687.24, 901.74 680.29 C 898.41 673.33, 896.82 669.11, 894.26 661.21 C 891.69 653.31, 890.46 648.90, 888.93 640.79 C 887.40 632.67, 886.83 628.23, 886.63 620.64 C 886.42 613.05, 887.02 608.93, 887.91 602.84 C 888.81 596.76, 890.32 594.11, 891.09 590.20 C 891.85 586.29, 892.65 585.05, 891.72 583.31 C 890.79 581.58, 888.28 580.57, 886.44 581.53" style="stroke: black; fill: black;"/></svg>